<mxfile host="app.diagrams.net" modified="2023-09-14T00:34:41.436Z" agent="Mozilla/5.0 (Macintosh; Intel Mac OS X 10_15_7) AppleWebKit/537.36 (KHTML, like Gecko) Chrome/114.0.0.0 Safari/537.36" etag="zMcsuh7n8dvQnIXgoYGk" version="21.7.4" type="github">
  <diagram name="페이지-1" id="5r9o5e4wwQLveVdvEuzW">
    <mxGraphModel dx="1131" dy="601" grid="1" gridSize="10" guides="1" tooltips="1" connect="1" arrows="1" fold="1" page="1" pageScale="1" pageWidth="827" pageHeight="1169" math="0" shadow="0">
      <root>
        <mxCell id="0" />
        <mxCell id="1" parent="0" />
        <mxCell id="-d5LDoqJq7l9m5UhgKC4-1" value="User" style="shape=umlActor;verticalLabelPosition=bottom;verticalAlign=top;html=1;outlineConnect=0;rounded=1;labelBackgroundColor=none;fillColor=#F2CC8F;strokeColor=#E07A5F;fontColor=#393C56;" vertex="1" parent="1">
          <mxGeometry x="20" y="130" width="30" height="60" as="geometry" />
        </mxCell>
        <mxCell id="-d5LDoqJq7l9m5UhgKC4-2" value="Board Service" style="shape=umlFrame;whiteSpace=wrap;html=1;pointerEvents=0;rounded=1;labelBackgroundColor=none;fillColor=#F2CC8F;strokeColor=#E07A5F;fontColor=#393C56;" vertex="1" parent="1">
          <mxGeometry x="120" y="40" width="620" height="500" as="geometry" />
        </mxCell>
        <mxCell id="-d5LDoqJq7l9m5UhgKC4-3" value="회원가입" style="rounded=1;whiteSpace=wrap;html=1;arcSize=40;labelBackgroundColor=none;fillColor=#F2CC8F;strokeColor=#E07A5F;fontColor=#393C56;" vertex="1" parent="1">
          <mxGeometry x="150" y="140" width="120" height="40" as="geometry" />
        </mxCell>
        <mxCell id="-d5LDoqJq7l9m5UhgKC4-30" value="&amp;lt;&amp;lt;extend&amp;gt;&amp;gt;" style="shape=connector;rounded=0;orthogonalLoop=1;jettySize=auto;html=1;exitX=0.5;exitY=1;exitDx=0;exitDy=0;entryX=1;entryY=0.5;entryDx=0;entryDy=0;labelBackgroundColor=default;strokeColor=default;fontFamily=Helvetica;fontSize=11;fontColor=default;endArrow=none;dashed=1;startArrow=classic;startFill=1;" edge="1" parent="1" source="-d5LDoqJq7l9m5UhgKC4-7" target="-d5LDoqJq7l9m5UhgKC4-5">
          <mxGeometry relative="1" as="geometry">
            <mxPoint x="310" y="290" as="sourcePoint" />
            <mxPoint x="410" y="110" as="targetPoint" />
          </mxGeometry>
        </mxCell>
        <mxCell id="-d5LDoqJq7l9m5UhgKC4-5" value="게시판 보기" style="rounded=1;whiteSpace=wrap;html=1;arcSize=40;labelBackgroundColor=none;fillColor=#F2CC8F;strokeColor=#E07A5F;fontColor=#393C56;" vertex="1" parent="1">
          <mxGeometry x="150" y="240" width="120" height="40" as="geometry" />
        </mxCell>
        <mxCell id="-d5LDoqJq7l9m5UhgKC4-31" value="&amp;lt;&amp;lt;extend&amp;gt;&amp;gt;" style="shape=connector;rounded=0;orthogonalLoop=1;jettySize=auto;html=1;exitX=1;exitY=0.5;exitDx=0;exitDy=0;labelBackgroundColor=default;strokeColor=default;fontFamily=Helvetica;fontSize=11;fontColor=default;endArrow=none;dashed=1;" edge="1" parent="1" source="-d5LDoqJq7l9m5UhgKC4-6">
          <mxGeometry relative="1" as="geometry">
            <mxPoint x="380" y="100" as="targetPoint" />
          </mxGeometry>
        </mxCell>
        <mxCell id="-d5LDoqJq7l9m5UhgKC4-44" style="shape=connector;rounded=0;orthogonalLoop=1;jettySize=auto;html=1;labelBackgroundColor=default;strokeColor=default;fontFamily=Helvetica;fontSize=11;fontColor=default;endArrow=none;entryX=0;entryY=0.5;entryDx=0;entryDy=0;" edge="1" parent="1" source="-d5LDoqJq7l9m5UhgKC4-6" target="-d5LDoqJq7l9m5UhgKC4-38">
          <mxGeometry relative="1" as="geometry" />
        </mxCell>
        <mxCell id="-d5LDoqJq7l9m5UhgKC4-6" value="게시글 보기" style="rounded=1;whiteSpace=wrap;html=1;arcSize=40;labelBackgroundColor=none;fillColor=#F2CC8F;strokeColor=#E07A5F;fontColor=#393C56;" vertex="1" parent="1">
          <mxGeometry x="150" y="360" width="120" height="40" as="geometry" />
        </mxCell>
        <mxCell id="-d5LDoqJq7l9m5UhgKC4-27" value="&amp;lt;&amp;lt;include&amp;gt;&amp;gt;" style="edgeStyle=orthogonalEdgeStyle;shape=connector;rounded=0;orthogonalLoop=1;jettySize=auto;html=1;labelBackgroundColor=default;strokeColor=default;fontFamily=Helvetica;fontSize=11;fontColor=default;endArrow=classic;dashed=1;endFill=1;" edge="1" parent="1" source="-d5LDoqJq7l9m5UhgKC4-7" target="-d5LDoqJq7l9m5UhgKC4-8">
          <mxGeometry relative="1" as="geometry" />
        </mxCell>
        <mxCell id="-d5LDoqJq7l9m5UhgKC4-7" value="로그인" style="rounded=1;whiteSpace=wrap;html=1;arcSize=40;labelBackgroundColor=none;fillColor=#F2CC8F;strokeColor=#E07A5F;fontColor=#393C56;" vertex="1" parent="1">
          <mxGeometry x="320" y="60" width="120" height="40" as="geometry" />
        </mxCell>
        <mxCell id="-d5LDoqJq7l9m5UhgKC4-41" style="shape=connector;rounded=0;orthogonalLoop=1;jettySize=auto;html=1;entryX=0;entryY=0.5;entryDx=0;entryDy=0;labelBackgroundColor=default;strokeColor=default;fontFamily=Helvetica;fontSize=11;fontColor=default;endArrow=none;exitX=1;exitY=0.5;exitDx=0;exitDy=0;" edge="1" parent="1" source="-d5LDoqJq7l9m5UhgKC4-8" target="-d5LDoqJq7l9m5UhgKC4-38">
          <mxGeometry relative="1" as="geometry" />
        </mxCell>
        <mxCell id="-d5LDoqJq7l9m5UhgKC4-8" value="인증" style="rounded=1;whiteSpace=wrap;html=1;arcSize=40;labelBackgroundColor=none;fillColor=#F2CC8F;strokeColor=#E07A5F;fontColor=#393C56;" vertex="1" parent="1">
          <mxGeometry x="600" y="60" width="120" height="40" as="geometry" />
        </mxCell>
        <mxCell id="-d5LDoqJq7l9m5UhgKC4-28" value="&amp;lt;&amp;lt;extend&amp;gt;&amp;gt;" style="shape=connector;rounded=0;orthogonalLoop=1;jettySize=auto;html=1;labelBackgroundColor=default;strokeColor=default;fontFamily=Helvetica;fontSize=11;fontColor=default;endArrow=none;dashed=1;startArrow=classic;startFill=1;entryX=0;entryY=0.5;entryDx=0;entryDy=0;exitX=1;exitY=0.5;exitDx=0;exitDy=0;" edge="1" parent="1" source="-d5LDoqJq7l9m5UhgKC4-7" target="-d5LDoqJq7l9m5UhgKC4-9">
          <mxGeometry relative="1" as="geometry">
            <mxPoint x="430" y="130" as="targetPoint" />
            <mxPoint x="590" y="190" as="sourcePoint" />
          </mxGeometry>
        </mxCell>
        <mxCell id="-d5LDoqJq7l9m5UhgKC4-9" value="로그인 실패" style="rounded=1;whiteSpace=wrap;html=1;arcSize=40;labelBackgroundColor=none;fillColor=#F2CC8F;strokeColor=#E07A5F;fontColor=#393C56;" vertex="1" parent="1">
          <mxGeometry x="600" y="120" width="120" height="40" as="geometry" />
        </mxCell>
        <mxCell id="-d5LDoqJq7l9m5UhgKC4-32" value="&amp;lt;&amp;lt;extend&amp;gt;&amp;gt;" style="shape=connector;rounded=0;orthogonalLoop=1;jettySize=auto;html=1;entryX=1;entryY=0.5;entryDx=0;entryDy=0;labelBackgroundColor=default;strokeColor=default;fontFamily=Helvetica;fontSize=11;fontColor=default;endArrow=classic;dashed=1;endFill=1;" edge="1" parent="1" source="-d5LDoqJq7l9m5UhgKC4-10" target="-d5LDoqJq7l9m5UhgKC4-5">
          <mxGeometry relative="1" as="geometry" />
        </mxCell>
        <mxCell id="-d5LDoqJq7l9m5UhgKC4-10" value="게시판 정렬" style="rounded=1;whiteSpace=wrap;html=1;arcSize=40;labelBackgroundColor=none;fillColor=#F2CC8F;strokeColor=#E07A5F;fontColor=#393C56;" vertex="1" parent="1">
          <mxGeometry x="420" y="200" width="120" height="40" as="geometry" />
        </mxCell>
        <mxCell id="-d5LDoqJq7l9m5UhgKC4-33" value="&amp;lt;&amp;lt;extend&amp;gt;&amp;gt;" style="shape=connector;rounded=0;orthogonalLoop=1;jettySize=auto;html=1;labelBackgroundColor=default;strokeColor=default;fontFamily=Helvetica;fontSize=11;fontColor=default;endArrow=classic;dashed=1;endFill=1;entryX=1;entryY=0.5;entryDx=0;entryDy=0;" edge="1" parent="1" source="-d5LDoqJq7l9m5UhgKC4-11" target="-d5LDoqJq7l9m5UhgKC4-5">
          <mxGeometry relative="1" as="geometry">
            <mxPoint x="280" y="280" as="targetPoint" />
          </mxGeometry>
        </mxCell>
        <mxCell id="-d5LDoqJq7l9m5UhgKC4-11" value="게시판 검색" style="rounded=1;whiteSpace=wrap;html=1;arcSize=40;labelBackgroundColor=none;fillColor=#F2CC8F;strokeColor=#E07A5F;fontColor=#393C56;" vertex="1" parent="1">
          <mxGeometry x="420" y="260" width="120" height="40" as="geometry" />
        </mxCell>
        <mxCell id="-d5LDoqJq7l9m5UhgKC4-34" value="&amp;lt;&amp;lt;extend&amp;gt;&amp;gt;" style="shape=connector;rounded=0;orthogonalLoop=1;jettySize=auto;html=1;entryX=1;entryY=0.5;entryDx=0;entryDy=0;labelBackgroundColor=default;strokeColor=default;fontFamily=Helvetica;fontSize=11;fontColor=default;endArrow=classic;dashed=1;startArrow=none;startFill=0;endFill=1;" edge="1" parent="1" source="-d5LDoqJq7l9m5UhgKC4-12" target="-d5LDoqJq7l9m5UhgKC4-6">
          <mxGeometry relative="1" as="geometry" />
        </mxCell>
        <mxCell id="-d5LDoqJq7l9m5UhgKC4-45" style="shape=connector;rounded=0;orthogonalLoop=1;jettySize=auto;html=1;exitX=1;exitY=0.5;exitDx=0;exitDy=0;labelBackgroundColor=default;strokeColor=default;fontFamily=Helvetica;fontSize=11;fontColor=default;endArrow=none;" edge="1" parent="1" source="-d5LDoqJq7l9m5UhgKC4-12" target="-d5LDoqJq7l9m5UhgKC4-38">
          <mxGeometry relative="1" as="geometry" />
        </mxCell>
        <mxCell id="-d5LDoqJq7l9m5UhgKC4-12" value="게시글 쓰기, 수정, 삭제" style="rounded=1;whiteSpace=wrap;html=1;arcSize=40;labelBackgroundColor=none;fillColor=#F2CC8F;strokeColor=#E07A5F;fontColor=#393C56;" vertex="1" parent="1">
          <mxGeometry x="420" y="410" width="120" height="40" as="geometry" />
        </mxCell>
        <mxCell id="-d5LDoqJq7l9m5UhgKC4-35" value="&amp;lt;&amp;lt;extend&amp;gt;&amp;gt;" style="shape=connector;rounded=0;orthogonalLoop=1;jettySize=auto;html=1;exitX=0;exitY=0.5;exitDx=0;exitDy=0;entryX=1;entryY=0.5;entryDx=0;entryDy=0;labelBackgroundColor=default;strokeColor=default;fontFamily=Helvetica;fontSize=11;fontColor=default;endArrow=classic;dashed=1;endFill=1;" edge="1" parent="1" source="-d5LDoqJq7l9m5UhgKC4-13" target="-d5LDoqJq7l9m5UhgKC4-6">
          <mxGeometry relative="1" as="geometry" />
        </mxCell>
        <mxCell id="-d5LDoqJq7l9m5UhgKC4-47" style="shape=connector;rounded=0;orthogonalLoop=1;jettySize=auto;html=1;entryX=0;entryY=0.5;entryDx=0;entryDy=0;labelBackgroundColor=default;strokeColor=default;fontFamily=Helvetica;fontSize=11;fontColor=default;endArrow=none;" edge="1" parent="1" source="-d5LDoqJq7l9m5UhgKC4-13" target="-d5LDoqJq7l9m5UhgKC4-38">
          <mxGeometry relative="1" as="geometry" />
        </mxCell>
        <mxCell id="-d5LDoqJq7l9m5UhgKC4-13" value="댓글 보기 쓰기, 수정, 삭제" style="rounded=1;whiteSpace=wrap;html=1;arcSize=40;labelBackgroundColor=none;fillColor=#F2CC8F;strokeColor=#E07A5F;fontColor=#393C56;" vertex="1" parent="1">
          <mxGeometry x="420" y="470" width="120" height="40" as="geometry" />
        </mxCell>
        <mxCell id="-d5LDoqJq7l9m5UhgKC4-22" value="" style="endArrow=none;html=1;rounded=0;labelBackgroundColor=default;strokeColor=default;fontFamily=Helvetica;fontSize=11;fontColor=default;shape=connector;exitX=1;exitY=0.3333333333333333;exitDx=0;exitDy=0;exitPerimeter=0;entryX=0;entryY=0.5;entryDx=0;entryDy=0;" edge="1" parent="1" source="-d5LDoqJq7l9m5UhgKC4-1" target="-d5LDoqJq7l9m5UhgKC4-7">
          <mxGeometry width="50" height="50" relative="1" as="geometry">
            <mxPoint x="90" y="135" as="sourcePoint" />
            <mxPoint x="140" y="85" as="targetPoint" />
          </mxGeometry>
        </mxCell>
        <mxCell id="-d5LDoqJq7l9m5UhgKC4-23" value="" style="endArrow=none;html=1;rounded=0;labelBackgroundColor=default;strokeColor=default;fontFamily=Helvetica;fontSize=11;fontColor=default;shape=connector;exitX=1;exitY=0.3333333333333333;exitDx=0;exitDy=0;exitPerimeter=0;entryX=0;entryY=0.5;entryDx=0;entryDy=0;" edge="1" parent="1" source="-d5LDoqJq7l9m5UhgKC4-1" target="-d5LDoqJq7l9m5UhgKC4-3">
          <mxGeometry width="50" height="50" relative="1" as="geometry">
            <mxPoint x="80" y="110" as="sourcePoint" />
            <mxPoint x="330" y="90" as="targetPoint" />
          </mxGeometry>
        </mxCell>
        <mxCell id="-d5LDoqJq7l9m5UhgKC4-24" value="" style="endArrow=none;html=1;rounded=0;labelBackgroundColor=default;strokeColor=default;fontFamily=Helvetica;fontSize=11;fontColor=default;shape=connector;entryX=0;entryY=0.5;entryDx=0;entryDy=0;exitX=1;exitY=0.3333333333333333;exitDx=0;exitDy=0;exitPerimeter=0;" edge="1" parent="1" source="-d5LDoqJq7l9m5UhgKC4-1" target="-d5LDoqJq7l9m5UhgKC4-5">
          <mxGeometry width="50" height="50" relative="1" as="geometry">
            <mxPoint x="70" y="100" as="sourcePoint" />
            <mxPoint x="340" y="100" as="targetPoint" />
          </mxGeometry>
        </mxCell>
        <mxCell id="-d5LDoqJq7l9m5UhgKC4-25" value="" style="endArrow=none;html=1;rounded=0;labelBackgroundColor=default;strokeColor=default;fontFamily=Helvetica;fontSize=11;fontColor=default;shape=connector;entryX=0;entryY=0.5;entryDx=0;entryDy=0;exitX=1;exitY=0.3333333333333333;exitDx=0;exitDy=0;exitPerimeter=0;" edge="1" parent="1" source="-d5LDoqJq7l9m5UhgKC4-1" target="-d5LDoqJq7l9m5UhgKC4-6">
          <mxGeometry width="50" height="50" relative="1" as="geometry">
            <mxPoint x="70" y="100" as="sourcePoint" />
            <mxPoint x="170" y="290" as="targetPoint" />
          </mxGeometry>
        </mxCell>
        <mxCell id="-d5LDoqJq7l9m5UhgKC4-43" style="shape=connector;rounded=0;orthogonalLoop=1;jettySize=auto;html=1;labelBackgroundColor=default;strokeColor=default;fontFamily=Helvetica;fontSize=11;fontColor=default;endArrow=none;entryX=1;entryY=0.5;entryDx=0;entryDy=0;exitX=0;exitY=0.5;exitDx=0;exitDy=0;" edge="1" parent="1" source="-d5LDoqJq7l9m5UhgKC4-38" target="-d5LDoqJq7l9m5UhgKC4-5">
          <mxGeometry relative="1" as="geometry" />
        </mxCell>
        <mxCell id="-d5LDoqJq7l9m5UhgKC4-38" value="DB" style="html=1;dropTarget=0;whiteSpace=wrap;fontFamily=Helvetica;fontSize=11;fontColor=default;" vertex="1" parent="1">
          <mxGeometry x="800" y="350" width="90" height="90" as="geometry" />
        </mxCell>
      </root>
    </mxGraphModel>
  </diagram>
</mxfile>
